# xmcd
#
# Track frame offsets:
#	150
#	21372
#	40870
#	64822
#	92657
#	122633
#	140213
#	163443
#	180171
#	206349
#	224345
#	247817
#	268571
#	285946
#	303752
#	323361
#
# Disc length: 4591 seconds
#
# Revision: 6
# Processed by: cddbd v1.5.2PL0 Copyright (c) Steve Scherf et al.
# Submitted via: EasyCDDAExtractor 15.3.0.1
#
DISCID=da11ed10
DTITLE=Marta Sanchez - Gira 2005 La Coruña - En Directo
DYEAR=2006
DGENRE=Latin
TTITLE0=Desconocida
TTITLE1=Sigo Intentando
TTITLE2=Vivo Por Ella
TTITLE3=Soldados Del Amor
TTITLE4=Con Solo Una Mirada, Lili Marlen
TTITLE5=Quiero Mas De Ti
TTITLE6=Profundo Valor
TTITLE7=Separate
TTITLE8=No Te Quiero Mas
TTITLE9=Tal Vez
TTITLE10=Y Sin Embargo Te Quiero
TTITLE11=Los Mejores Años De Nuestra Vida
TTITLE12=Soy Yo
TTITLE13=Desesperada
TTITLE14=De Mujer A Mujer
TTITLE15=Caradura
EXTD=
EXTT0=
EXTT1=
EXTT2=
EXTT3=
EXTT4=
EXTT5=
EXTT6=
EXTT7=
EXTT8=
EXTT9=
EXTT10=
EXTT11=
EXTT12=
EXTT13=
EXTT14=
EXTT15=
PLAYORDER=
